Coordinates
version=1
nRows=4
nColumns=114
inDegrees=yes

Units are S.I. units (second, meters, Newtons, ...)
If the header above contains a line with 'inDegrees', this indicates whether rotational values are in degrees (yes) or radians (no).

endheader 
time	pelvis_tilt	pelvis_list	pelvis_rotation	pelvis_tx	pelvis_ty	pelvis_tz	hip_flexion_l	hip_adduction_l	hip_rotation_l	hip_flexion_r	hip_adduction_r	hip_rotation_r	knee_angle_l	knee_angle_r	ankle_angle_l	ankle_angle_r	subtalar_angle_l	subtalar_angle_r	mtp_angle_l	mtp_angle_r	lumbar_extension	lumbar_bending	lumbar_rotation	arm_flex_l	arm_add_l	arm_rot_l	arm_flex_r	arm_add_r	arm_rot_r	elbow_flex_l	elbow_flex_r	pro_sup_l	pro_sup_r	addbrev_l/activation	addlong_l/activation	addmagDist_l/activation	addmagIsch_l/activation	addmagMid_l/activation	addmagProx_l/activation	bflh_l/activation	bfsh_l/activation	edl_l/activation	ehl_l/activation	fdl_l/activation	fhl_l/activation	gaslat_l/activation	gasmed_l/activation	glmax1_l/activation	glmax2_l/activation	glmax3_l/activation	glmed1_l/activation	glmed2_l/activation	glmed3_l/activation	glmin1_l/activation	glmin2_l/activation	glmin3_l/activation	grac_l/activation	iliacus_l/activation	perbrev_l/activation	perlong_l/activation	piri_l/activation	psoas_l/activation	recfem_l/activation	sart_l/activation	semimem_l/activation	semiten_l/activation	soleus_l/activation	tfl_l/activation	tibant_l/activation	tibpost_l/activation	vasint_l/activation	vaslat_l/activation	vasmed_l/activation	addbrev_r/activation	addlong_r/activation	addmagDist_r/activation	addmagIsch_r/activation	addmagMid_r/activation	addmagProx_r/activation	bflh_r/activation	bfsh_r/activation	edl_r/activation	ehl_r/activation	fdl_r/activation	fhl_r/activation	gaslat_r/activation	gasmed_r/activation	glmax1_r/activation	glmax2_r/activation	glmax3_r/activation	glmed1_r/activation	glmed2_r/activation	glmed3_r/activation	glmin1_r/activation	glmin2_r/activation	glmin3_r/activation	grac_r/activation	iliacus_r/activation	perbrev_r/activation	perlong_r/activation	piri_r/activation	psoas_r/activation	recfem_r/activation	sart_r/activation	semimem_r/activation	semiten_r/activation	soleus_r/activation	tfl_r/activation	tibant_r/activation	tibpost_r/activation	vasint_r/activation	vaslat_r/activation	vasmed_r/activation	
          2.87000000	          1.97345370	          1.12851350	        -61.48111272	         -2.26092184	          1.11753166	         -0.16856311	          2.81029536	          8.07454030	         -4.41939373	         29.30352378	          7.37097698	        -11.30586464	         30.79378580	         35.95943089	        -14.77133226	         -6.49896705	         -3.28859366	         -2.55043948	         -8.60914618	         -1.80456697	          8.68993818	         12.85347379	        -30.27235036	         73.40106382	        -16.94048918	       -122.87970001	         54.39778865	        -13.32107505	        -26.98913192	          4.23816291	        134.49788608	        119.53202345	        112.73270799	          0.01140447	          0.12240743	          0.01004690	          0.01140728	          0.01006496	          0.01005392	          0.01570381	          0.24362508	          0.36210505	          0.08088574	          0.02545131	          0.03834265	          0.15831526	          0.19844713	          0.01670354	          0.04296670	          0.01436838	          0.99789464	          0.28623955	          0.01230926	          0.66255043	          0.37983543	          0.08178599	          0.01187485	          0.35264140	          0.13381436	          0.26281656	          0.01004418	          0.16833423	          0.01959200	          0.23298569	          0.16075438	          0.09018083	          0.09251327	          0.67535207	          0.30744979	          0.04986515	          0.01004010	          0.01500427	          0.01124536	          0.01476099	          0.02521784	          0.01003658	          0.01005172	          0.01405782	          0.01806697	          0.09108402	          0.34229507	          0.26906771	          0.10025195	          0.01872540	          0.01018942	          0.07993704	          0.12378188	          0.09759760	          0.19134502	          0.01003192	          0.97660987	          0.62279027	          0.44537607	          0.45012088	          0.42485034	          0.38410397	          0.02099676	          0.23591674	          0.08934272	          0.13869614	          0.64406466	          0.12343553	          0.06899265	          0.37204577	          0.35222023	          0.06939484	          0.01001998	          0.43156759	          0.30694857	          0.01012899	          0.01003423	          0.01001129	          0.01002317	
          2.88000000	          3.58392389	          1.42988367	        -62.27847508	         -2.24706375	          1.12803864	         -0.16729328	          3.47527290	          8.62351881	         -3.79855154	         27.91196187	          7.19264636	        -10.98890054	         34.15145076	         32.99642242	        -15.78134407	         -7.34049964	         -2.68977508	         -0.81762963	         -7.54115226	         -1.60865918	          7.38789353	         10.48573061	        -29.87895614	         74.27546601	        -19.02731426	       -114.12859106	         43.43799042	        -21.32882245	        -19.57204302	          3.91207611	        132.06881086	        119.36848153	        112.48177130	          0.01005914	          0.10201739	          0.01003751	          0.01003950	          0.01007211	          0.01006944	          0.01309214	          0.20303436	          0.40888950	          0.06970456	          0.02122870	          0.03196293	          0.13193164	          0.16537392	          0.01392299	          0.03580699	          0.01197712	          0.99928348	          0.23853803	          0.01026961	          0.67559022	          0.31656729	          0.06816329	          0.01012682	          0.44799415	          0.14689294	          0.27807769	          0.01001823	          0.14029500	          0.01639568	          0.19416827	          0.13396540	          0.07515888	          0.07709483	          0.63877825	          0.36691651	          0.04155588	          0.01001701	          0.01250516	          0.01001015	          0.01230382	          0.02101621	          0.01003040	          0.01003710	          0.01172236	          0.01506159	          0.08461129	          0.29804510	          0.26789976	          0.09543717	          0.01562985	          0.01017360	          0.08737300	          0.13081995	          0.08239800	          0.15947416	          0.01002777	          0.93571037	          0.57427469	          0.37129093	          0.37604293	          0.38748961	          0.32462200	          0.01750353	          0.29027112	          0.08064016	          0.14260583	          0.56737284	          0.10288060	          0.05749620	          0.48923908	          0.29353166	          0.05784164	          0.01002026	          0.42409477	          0.30663563	          0.01011150	          0.01003628	          0.01001183	          0.01002458	
          2.89000000	          4.99817898	          1.58187456	        -62.85047143	         -2.23205351	          1.13699280	         -0.16647322	          4.20025720	          8.81087597	         -3.26865396	         26.61285135	          6.95260321	        -10.55867636	         37.81806791	         30.73610331	        -16.08876117	         -8.01856357	         -2.59734161	          0.18733042	         -6.59238804	         -1.42721695	          6.31723797	          8.47854627	        -29.93763027	         77.30298890	        -18.42089312	       -124.56782224	         35.71475381	        -27.02504274	         -9.92127564	         11.82086468	        126.56002860	        119.90050160	        111.53008146	          0.01012054	          0.08503558	          0.01006447	          0.01024423	          0.01010414	          0.01007769	          0.01092129	          0.16920973	          0.45019091	          0.12644258	          0.01769701	          0.02663763	          0.10994499	          0.13781277	          0.01160831	          0.02984072	          0.01001643	          0.99970796	          0.19878659	          0.01002263	          0.56598763	          0.26383521	          0.05681029	          0.01010865	          0.37340293	          0.16653904	          0.29578645	          0.01001426	          0.11692764	          0.14034438	          0.16181926	          0.11165494	          0.06264137	          0.06424607	          0.58242835	          0.44552543	          0.03463143	          0.01012447	          0.01043018	          0.01009238	          0.01025896	          0.01751512	          0.01002830	          0.01003396	          0.01002351	          0.01255941	          0.07051174	          0.33420474	          0.25426084	          0.08253737	          0.01323786	          0.01014397	          0.08485671	          0.11809853	          0.06897116	          0.13291423	          0.01002592	          0.89951631	          0.55653568	          0.63505771	          0.33084411	          0.38471629	          0.30858675	          0.01459515	          0.24332486	          0.06747403	          0.14896006	          0.47293953	          0.08575446	          0.04792026	          0.46894562	          0.27386161	          0.04822794	          0.01001581	          0.42314371	          0.28244768	          0.01008435	          0.01002657	          0.01000861	          0.01001822	
          2.90000000	          6.28025512	          1.68473656	        -63.53257290	         -2.21685560	          1.14430230	         -0.16600239	          5.02669703	          8.70764272	         -3.15087279	         25.64171747	          6.75153388	         -9.57938940	         41.72150261	         29.32989222	        -15.72963484	         -8.51421285	         -3.48676304	          0.43156607	         -5.76492364	         -1.28649096	          5.33270541	          6.77113963	        -30.01322086	         81.34177622	        -17.94552864	       -138.11783152	         31.98197766	        -30.60789739	         -0.54225544	         19.78862768	        120.11667331	        119.90578293	        110.15413407	          0.01033486	          0.07118763	          0.01007990	          0.01371028	          0.01013720	          0.01009552	          0.01004160	          0.14102656	          0.43304686	          0.12798244	          0.01478961	          0.02225846	          0.09162282	          0.11484514	          0.01001681	          0.02486901	          0.01001857	          0.99966528	          0.16566075	          0.01002405	          0.53840524	          0.21989712	          0.04735023	          0.01016430	          0.42241019	          0.13911778	          0.29470668	          0.01001448	          0.09746150	          0.33935485	          0.13486411	          0.09305160	          0.05221073	          0.05353875	          0.52653004	          0.43467194	          0.02886081	          0.01003658	          0.01001108	          0.01002741	          0.01001908	          0.01459812	          0.01002860	          0.01003411	          0.01003141	          0.01048211	          0.06942494	          0.35639417	          0.22454934	          0.06892790	          0.01108794	          0.01016203	          0.07430876	          0.10020548	          0.05753916	          0.11077584	          0.01002494	          0.85278116	          0.54212549	          0.52928903	          0.29956646	          0.34445265	          0.30526223	          0.01217870	          0.24870451	          0.05643950	          0.16442173	          0.40159841	          0.07149053	          0.03993473	          0.44379027	          0.28469541	          0.04029580	          0.01001545	          0.40928970	          0.23546203	          0.01010180	          0.01002004	          0.01000646	          0.01001389	
